<svg width="41" height="42" xmlns="http://www.w3.org/2000/svg" xmlns:xlink="http://www.w3.org/1999/xlink" xml:space="preserve" overflow="hidden"><g transform="translate(-444 -247)"><path d="M35.2703 5.73274C32.8312 3.29746 28.9056 3.2189 26.3711 5.55465L5.53927 26.3656C3.13817 28.9808 3.31177 33.0474 5.92702 35.4485 8.38843 37.7083 12.1707 37.7057 14.6289 35.4424L35.4607 14.6314C37.7933 12.0938 37.7092 8.16818 35.2703 5.73274ZM16.4705 20.8886C16.1358 21.2234 15.593 21.2235 15.2583 20.8888 14.9235 20.5541 14.9234 20.0114 15.2581 19.6766 15.5928 19.3418 16.1355 19.3417 16.4703 19.6765 16.4704 19.6765 16.4704 19.6765 16.4705 19.6766 16.8052 20.011 16.8054 20.5535 16.4709 20.8882 16.4708 20.8883 16.4706 20.8885 16.4705 20.8886ZM18.8946 23.3132C18.5599 23.648 18.0172 23.648 17.6824 23.3133 17.3476 22.9786 17.3476 22.4359 17.6822 22.1011 18.0169 21.7663 18.5597 21.7663 18.8945 22.101 18.8945 22.101 18.8946 22.1011 18.8946 22.1011 19.2293 22.4356 19.2295 22.978 18.8951 23.3127 18.8949 23.3129 18.8948 23.313 18.8946 23.3132ZM18.8946 18.4645C18.5599 18.7993 18.0172 18.7994 17.6824 18.4646 17.3476 18.1299 17.3476 17.5872 17.6822 17.2525 18.0169 16.9177 18.5597 16.9176 18.8945 17.2523 18.8945 17.2524 18.8946 17.2524 18.8946 17.2525 19.2293 17.5869 19.2295 18.1293 18.8951 18.4641 18.8949 18.4642 18.8948 18.4643 18.8946 18.4645ZM21.3187 25.7373C20.984 26.0721 20.4413 26.0722 20.1065 25.7375 19.7717 25.4027 19.7717 24.8601 20.1064 24.5253 20.4411 24.1905 20.9838 24.1904 21.3186 24.5251 21.3186 24.5252 21.3187 24.5252 21.3187 24.5253 21.6534 24.8597 21.6536 25.4021 21.3192 25.7369 21.319 25.737 21.3189 25.7372 21.3187 25.7373ZM21.3187 20.8886C20.984 21.2234 20.4413 21.2235 20.1065 20.8888 19.7717 20.5541 19.7717 20.0114 20.1064 19.6766 20.4411 19.3418 20.9838 19.3417 21.3186 19.6765 21.3186 19.6765 21.3187 19.6765 21.3187 19.6766 21.6534 20.011 21.6536 20.5535 21.3192 20.8882 21.319 20.8883 21.3189 20.8885 21.3187 20.8886ZM21.3187 16.0404C20.984 16.3752 20.4413 16.3752 20.1065 16.0405 19.7717 15.7058 19.7717 15.1631 20.1064 14.8283 20.4411 14.4935 20.9838 14.4935 21.3186 14.8282 21.3186 14.8282 21.3187 14.8283 21.3187 14.8283 21.6534 15.1628 21.6536 15.7052 21.3192 16.0399 21.319 16.0401 21.3189 16.0402 21.3187 16.0404ZM23.7433 23.3132C23.4086 23.648 22.8658 23.648 22.5311 23.3133 22.1963 22.9786 22.1962 22.4359 22.5309 22.1011 22.8656 21.7663 23.4084 21.7663 23.7431 22.101 23.7432 22.101 23.7432 22.1011 23.7433 22.1011 24.078 22.4356 24.0782 22.978 23.7437 23.3127 23.7436 23.3129 23.7434 23.313 23.7433 23.3132ZM23.7433 18.4645C23.4086 18.7993 22.8658 18.7994 22.5311 18.4646 22.1963 18.1299 22.1962 17.5872 22.5309 17.2525 22.8656 16.9177 23.4084 16.9176 23.7431 17.2523 23.7432 17.2524 23.7432 17.2524 23.7433 17.2525 24.078 17.5869 24.0782 18.1293 23.7437 18.4641 23.7436 18.4642 23.7434 18.4643 23.7433 18.4645ZM26.1674 20.8886C25.8327 21.2234 25.29 21.2235 24.9552 20.8888 24.6204 20.5541 24.6204 20.0114 24.955 19.6766 25.2897 19.3418 25.8325 19.3417 26.1673 19.6765 26.1673 19.6765 26.1674 19.6765 26.1674 19.6766 26.5021 20.011 26.5023 20.5535 26.1679 20.8882 26.1677 20.8883 26.1676 20.8885 26.1674 20.8886Z" stroke="#000000" stroke-width="0.427083" fill="#FF0000" transform="matrix(1 0 0 1.02439 444 247)"/></g></svg>