<svg width="57" height="56" xmlns="http://www.w3.org/2000/svg" xmlns:xlink="http://www.w3.org/1999/xlink" xml:space="preserve" overflow="hidden"><g transform="translate(-255 -228)"><path d="M45.85 18.3167C53.4333 9.8 50.6917 6.825 50.6917 6.825 49.7583 5.89167 48.3 5.89167 47.3667 6.825L25.2583 28.9333 6.00833 46.9C4.66667 48.2417 4.66667 50.4583 6.00833 51.8583 7.35 53.2 9.56667 53.2 10.9667 51.8583L28.525 32.6083C29.4 33.0167 31.7333 34.1833 32.4333 33.425L45.85 18.3167Z" stroke="#000000" stroke-width="0.583333" fill="#1900FF" transform="matrix(1.01786 0 0 1 255 228)"/><path d="M51.8 46.9 36.4583 32.375 34.125 35C33.7167 35.4083 33.0167 35.9333 31.9083 35.9917L46.9 51.8583C48.3 53.2 50.5167 53.2 51.8583 51.8583 53.1417 50.4583 53.1417 48.2417 51.8 46.9Z" stroke="#000000" stroke-width="0.583333" fill="#1900FF" transform="matrix(1.01786 0 0 1 255 228)"/><path d="M20.9417 27.7667C20.9417 27.7667 21.9917 27.5333 23.1583 27.7083L23.625 27.2417 27.65 23.2167C27.475 22.1083 27.7083 21 27.7083 21 28.1167 18.4917 27.125 15.575 24.15 12.6 19.25 7.7 12.25 3.15 12.25 3.15L11.2 4.2 22.9833 15.9833C23.3333 16.3333 23.3333 16.8583 22.9833 17.2083 22.6333 17.5583 22.1083 17.5583 21.7583 17.2083L9.975 5.425 8.34167 7.05833 20.125 18.8417C20.475 19.1917 20.475 19.7167 20.125 20.0667 19.775 20.4167 19.25 20.4167 18.9 20.0667L7.11667 8.28333 5.48333 9.91667 17.2667 21.7C17.6167 22.05 17.6167 22.575 17.2667 22.925 16.9167 23.275 16.3917 23.275 16.0417 22.925L4.2 11.2 3.15 12.25C3.15 12.25 8.10833 19.7167 12.5417 24.2083 15.5167 27.1833 18.4333 28.175 20.9417 27.7667Z" stroke="#000000" stroke-width="0.583333" fill="#1900FF" transform="matrix(1.01786 0 0 1 255 228)"/></g></svg>