<svg width="26" height="26" xmlns="http://www.w3.org/2000/svg" xmlns:xlink="http://www.w3.org/1999/xlink" xml:space="preserve" overflow="hidden"><g transform="translate(-139 -228)"><path d="M160.288 236.504C163.808 232.55 162.535 231.169 162.535 231.169 162.102 230.735 161.425 230.735 160.992 231.169L150.727 241.433 141.79 249.775C141.167 250.398 141.167 251.427 141.79 252.077 142.413 252.7 143.442 252.7 144.092 252.077L152.244 243.14C152.65 243.329 153.733 243.871 154.058 243.519L160.288 236.504Z" stroke="#000000" stroke-width="0.270833" fill="#FF0000"/><path d="M163.05 249.775 155.927 243.031 154.844 244.25C154.654 244.44 154.329 244.683 153.815 244.71L160.775 252.077C161.425 252.7 162.454 252.7 163.077 252.077 163.673 251.427 163.673 250.398 163.05 249.775Z" stroke="#000000" stroke-width="0.270833" fill="#FF0000"/><path d="M148.723 240.892C148.723 240.892 149.21 240.783 149.752 240.865L149.969 240.648 151.837 238.779C151.756 238.265 151.865 237.75 151.865 237.75 152.054 236.585 151.594 235.231 150.212 233.85 147.938 231.575 144.688 229.462 144.688 229.462L144.2 229.95 149.671 235.421C149.833 235.583 149.833 235.827 149.671 235.99 149.508 236.152 149.265 236.152 149.102 235.99L143.631 230.519 142.873 231.277 148.344 236.748C148.506 236.91 148.506 237.154 148.344 237.317 148.181 237.479 147.938 237.479 147.775 237.317L142.304 231.846 141.546 232.604 147.017 238.075C147.179 238.238 147.179 238.481 147.017 238.644 146.854 238.806 146.61 238.806 146.448 238.644L140.95 233.2 140.462 233.688C140.462 233.688 142.765 237.154 144.823 239.24 146.204 240.621 147.558 241.081 148.723 240.892Z" stroke="#000000" stroke-width="0.270833" fill="#FF0000"/></g></svg>