<svg width="42" height="42" xmlns="http://www.w3.org/2000/svg" xmlns:xlink="http://www.w3.org/1999/xlink" xml:space="preserve" overflow="hidden"><g transform="translate(-569 -95)"><path d="M597 124.75 597 121.25 582.125 121.25C581.644 121.25 581.25 120.856 581.25 120.375L581.25 111.625C581.25 111.144 581.644 110.75 582.125 110.75L597 110.75 597 107.25C597 106.287 596.213 105.5 595.25 105.5L593.719 105.5C593.588 105.5 593.5 105.412 593.5 105.281L593.5 103.969C593.5 103.838 593.588 103.75 593.719 103.75L594.812 103.75C595.075 103.75 595.25 103.575 595.25 103.312L595.25 100.25C595.25 99.2875 594.463 98.5 593.5 98.5L581.25 98.5C580.287 98.5 579.5 99.2875 579.5 100.25L579.5 103.312C579.5 103.575 579.675 103.75 579.938 103.75L581.031 103.75C581.162 103.75 581.25 103.838 581.25 103.969L581.25 105.281C581.25 105.412 581.162 105.5 581.031 105.5L579.5 105.5C578.537 105.5 577.75 106.287 577.75 107.25L577.75 128.25C577.75 129.212 578.537 130 579.5 130L585.625 130C585.625 127.113 587.987 124.75 590.875 124.75L597 124.75Z" stroke="#000000" stroke-width="0.4375" fill="#1900FF"/><path d="M583 112.938 583 119.062C583 119.325 583.175 119.5 583.438 119.5L597 119.5 597 112.5 583.438 112.5C583.175 112.5 583 112.675 583 112.938Z" stroke="#000000" stroke-width="0.4375" fill="#1900FF"/><path d="M594.812 131.75 590.875 131.75C589.912 131.75 589.125 130.962 589.125 130 589.125 129.038 589.912 128.25 590.875 128.25L594.812 128.25 594.812 131.75ZM598.75 126.5 590.875 126.5C588.95 126.5 587.375 128.075 587.375 130 587.375 131.925 588.95 133.5 590.875 133.5L598.75 133.5C600.675 133.5 602.25 131.925 602.25 130 602.25 128.075 600.675 126.5 598.75 126.5Z" stroke="#000000" stroke-width="0.4375" fill="#1900FF"/></g></svg>