<svg width="43" height="42" xmlns="http://www.w3.org/2000/svg" xmlns:xlink="http://www.w3.org/1999/xlink" xml:space="preserve" overflow="hidden"><g transform="translate(-462 -95)"><path d="M28 29.75 28 26.25 13.125 26.25C12.6438 26.25 12.25 25.8562 12.25 25.375L12.25 16.625C12.25 16.1438 12.6438 15.75 13.125 15.75L28 15.75 28 12.25C28 11.2875 27.2125 10.5 26.25 10.5L24.7188 10.5C24.5875 10.5 24.5 10.4125 24.5 10.2812L24.5 8.96875C24.5 8.8375 24.5875 8.75 24.7188 8.75L25.8125 8.75C26.075 8.75 26.25 8.575 26.25 8.3125L26.25 5.25C26.25 4.2875 25.4625 3.5 24.5 3.5L12.25 3.5C11.2875 3.5 10.5 4.2875 10.5 5.25L10.5 8.3125C10.5 8.575 10.675 8.75 10.9375 8.75L12.0312 8.75C12.1625 8.75 12.25 8.8375 12.25 8.96875L12.25 10.2812C12.25 10.4125 12.1625 10.5 12.0312 10.5L10.5 10.5C9.5375 10.5 8.75 11.2875 8.75 12.25L8.75 33.25C8.75 34.2125 9.5375 35 10.5 35L16.625 35C16.625 32.1125 18.9875 29.75 21.875 29.75L28 29.75Z" stroke="#000000" stroke-width="0.4375" fill="#FF0000" transform="matrix(1.02381 0 0 1 462 95)"/><path d="M14 17.9375 14 24.0625C14 24.325 14.175 24.5 14.4375 24.5L28 24.5 28 17.5 14.4375 17.5C14.175 17.5 14 17.675 14 17.9375Z" stroke="#000000" stroke-width="0.4375" fill="#FF0000" transform="matrix(1.02381 0 0 1 462 95)"/><path d="M25.8125 36.75 21.875 36.75C20.9125 36.75 20.125 35.9625 20.125 35 20.125 34.0375 20.9125 33.25 21.875 33.25L25.8125 33.25 25.8125 36.75ZM29.75 31.5 21.875 31.5C19.95 31.5 18.375 33.075 18.375 35 18.375 36.925 19.95 38.5 21.875 38.5L29.75 38.5C31.675 38.5 33.25 36.925 33.25 35 33.25 33.075 31.675 31.5 29.75 31.5Z" stroke="#000000" stroke-width="0.4375" fill="#FF0000" transform="matrix(1.02381 0 0 1 462 95)"/></g></svg>