<svg width="32" height="32" xmlns="http://www.w3.org/2000/svg" xmlns:xlink="http://www.w3.org/1999/xlink" xml:space="preserve" overflow="hidden"><g transform="translate(-140 -323)"><path d="M166.175 346.333 156.782 330.833 159.194 326.853C159.391 326.542 159.298 326.13 158.987 325.933 158.676 325.736 158.264 325.828 158.067 326.139 158.063 326.147 158.058 326.154 158.054 326.162L156.669 328.447 156.669 325.333C156.669 324.965 156.37 324.667 156.002 324.667 155.634 324.667 155.335 324.965 155.335 325.333L155.335 328.447 153.95 326.162C153.766 325.843 153.358 325.735 153.039 325.919 152.721 326.104 152.612 326.512 152.797 326.83 152.801 326.838 152.806 326.846 152.81 326.853L155.222 330.833 145.828 346.333 142.669 346.333 142.669 348.333 169.335 348.333 169.335 346.333ZM153.409 346.167C153.467 342.409 154.47 340 156.002 340 157.534 340 158.539 342.409 158.595 346.167Z" stroke="#000000" stroke-width="0.333333" fill="#1900FF"/></g></svg>