<svg width="32" height="32" xmlns="http://www.w3.org/2000/svg" xmlns:xlink="http://www.w3.org/1999/xlink" xml:space="preserve" overflow="hidden"><g transform="translate(-263 -323)"><path d="M289.175 346.333 279.782 330.833 282.194 326.853C282.391 326.542 282.298 326.13 281.987 325.933 281.676 325.736 281.264 325.828 281.067 326.139 281.063 326.147 281.058 326.154 281.054 326.162L279.669 328.447 279.669 325.333C279.669 324.965 279.37 324.667 279.002 324.667 278.634 324.667 278.335 324.965 278.335 325.333L278.335 328.447 276.95 326.162C276.766 325.843 276.358 325.735 276.039 325.919 275.721 326.104 275.612 326.512 275.797 326.83 275.801 326.838 275.806 326.846 275.81 326.853L278.222 330.833 268.828 346.333 265.669 346.333 265.669 348.333 292.335 348.333 292.335 346.333ZM276.409 346.167C276.467 342.409 277.47 340 279.002 340 280.534 340 281.539 342.409 281.595 346.167Z" stroke="#000000" stroke-width="0.333333" fill="#FF0000"/></g></svg>