<svg width="49" height="49" xmlns="http://www.w3.org/2000/svg" xmlns:xlink="http://www.w3.org/1999/xlink" xml:space="preserve" overflow="hidden"><g transform="translate(-222 -83)"><path d="M250.073 86.5729C250.073 86.0091 249.616 85.5521 249.052 85.5521L243.948 85.5521C243.384 85.5521 242.927 86.0091 242.927 86.5729L242.927 90.1458 250.073 90.1458Z" stroke="#000000" stroke-width="0.510417" fill="#1900FF"/><path d="M256.198 103.749C256.196 102.946 256.006 102.154 255.644 101.436L250.485 91.6771 242.515 91.6771 237.341 101.467C236.987 102.176 236.803 102.957 236.802 103.749L236.802 105.203C236.802 106.033 237.074 106.839 237.575 107.5 237.074 108.161 236.802 108.967 236.802 109.797L236.802 110.307C236.802 111.137 237.074 111.943 237.575 112.604 237.074 113.265 236.802 114.072 236.802 114.901L236.802 115.411C236.802 116.241 237.074 117.047 237.575 117.708 237.074 118.369 236.802 119.176 236.802 120.005L236.802 124.854C236.805 127.39 238.86 129.445 241.396 129.448L251.604 129.448C254.14 129.445 256.195 127.39 256.198 124.854L256.198 120.005C256.198 119.176 255.926 118.369 255.425 117.708 255.926 117.047 256.198 116.241 256.198 115.411L256.198 114.901C256.198 114.072 255.926 113.265 255.425 112.604 255.926 111.943 256.198 111.137 256.198 110.307L256.198 109.797C256.198 108.967 255.926 108.161 255.425 107.5 255.926 106.839 256.198 106.033 256.198 105.203ZM253.135 105.203C253.135 105.626 252.793 105.969 252.37 105.969L250.583 105.969 250.583 109.031 252.37 109.031C252.793 109.031 253.135 109.374 253.135 109.797L253.135 110.307C253.135 110.73 252.793 111.073 252.37 111.073L250.583 111.073 250.583 114.135 252.37 114.135C252.793 114.135 253.135 114.478 253.135 114.901L253.135 115.411C253.135 115.834 252.793 116.177 252.37 116.177L250.583 116.177 250.583 119.24 252.37 119.24C252.793 119.24 253.135 119.582 253.135 120.005L253.135 124.854C253.135 125.7 252.45 126.385 251.604 126.385L241.396 126.385C240.55 126.385 239.865 125.7 239.865 124.854L239.865 120.005C239.865 119.582 240.207 119.24 240.63 119.24L242.417 119.24 242.417 116.177 240.63 116.177C240.207 116.177 239.865 115.834 239.865 115.411L239.865 114.901C239.865 114.478 240.207 114.135 240.63 114.135L242.417 114.135 242.417 111.073 240.63 111.073C240.207 111.073 239.865 110.73 239.865 110.307L239.865 109.797C239.865 109.374 240.207 109.031 240.63 109.031L242.417 109.031 242.417 105.969 240.63 105.969C240.207 105.969 239.865 105.626 239.865 105.203L239.865 103.749C239.864 103.444 239.932 103.143 240.064 102.867L244.36 94.7396 248.64 94.7396 252.92 102.836C253.061 103.12 253.135 103.433 253.135 103.749Z" stroke="#000000" stroke-width="0.510417" fill="#1900FF"/></g></svg>