<svg width="26" height="26" xmlns="http://www.w3.org/2000/svg" xmlns:xlink="http://www.w3.org/1999/xlink" xml:space="preserve" overflow="hidden"><g transform="translate(-139 -74)"><path d="M153.896 75.8958C153.896 75.5967 153.653 75.3542 153.354 75.3542L150.646 75.3542C150.347 75.3542 150.104 75.5967 150.104 75.8958L150.104 77.7917 153.896 77.7917Z" stroke="#000000" stroke-width="0.270833" fill="#FF0000"/><path d="M157.146 85.0099C157.145 84.5835 157.044 84.1632 156.852 83.7825L154.115 78.6042 149.885 78.6042 147.14 83.799C146.952 84.1752 146.855 84.5896 146.854 85.0099L146.854 85.7812C146.854 86.2214 146.998 86.6493 147.264 87 146.998 87.3507 146.854 87.7786 146.854 88.2188L146.854 88.4896C146.854 88.9297 146.998 89.3577 147.264 89.7083 146.998 90.059 146.854 90.487 146.854 90.9271L146.854 91.1979C146.854 91.638 146.998 92.066 147.264 92.4167 146.998 92.7673 146.854 93.1953 146.854 93.6354L146.854 96.2083C146.856 97.5538 147.946 98.6442 149.292 98.6458L154.708 98.6458C156.054 98.6442 157.144 97.5538 157.146 96.2083L157.146 93.6354C157.146 93.1953 157.002 92.7673 156.736 92.4167 157.002 92.066 157.146 91.638 157.146 91.1979L157.146 90.9271C157.146 90.487 157.002 90.059 156.736 89.7083 157.002 89.3577 157.146 88.9297 157.146 88.4896L157.146 88.2188C157.146 87.7786 157.002 87.3507 156.736 87 157.002 86.6493 157.146 86.2214 157.146 85.7812ZM155.521 85.7812C155.521 86.0056 155.339 86.1875 155.115 86.1875L154.167 86.1875 154.167 87.8125 155.115 87.8125C155.339 87.8125 155.521 87.9944 155.521 88.2188L155.521 88.4896C155.521 88.7139 155.339 88.8958 155.115 88.8958L154.167 88.8958 154.167 90.5208 155.115 90.5208C155.339 90.5208 155.521 90.7027 155.521 90.9271L155.521 91.1979C155.521 91.4223 155.339 91.6042 155.115 91.6042L154.167 91.6042 154.167 93.2292 155.115 93.2292C155.339 93.2292 155.521 93.4111 155.521 93.6354L155.521 96.2083C155.521 96.6571 155.157 97.0208 154.708 97.0208L149.292 97.0208C148.843 97.0208 148.479 96.6571 148.479 96.2083L148.479 93.6354C148.479 93.4111 148.661 93.2292 148.885 93.2292L149.833 93.2292 149.833 91.6042 148.885 91.6042C148.661 91.6042 148.479 91.4223 148.479 91.1979L148.479 90.9271C148.479 90.7027 148.661 90.5208 148.885 90.5208L149.833 90.5208 149.833 88.8958 148.885 88.8958C148.661 88.8958 148.479 88.7139 148.479 88.4896L148.479 88.2188C148.479 87.9944 148.661 87.8125 148.885 87.8125L149.833 87.8125 149.833 86.1875 148.885 86.1875C148.661 86.1875 148.479 86.0056 148.479 85.7812L148.479 85.0099C148.479 84.8479 148.515 84.688 148.585 84.5419L150.865 80.2292 153.135 80.2292 155.407 84.5254C155.481 84.6759 155.521 84.8418 155.521 85.0099Z" stroke="#000000" stroke-width="0.270833" fill="#FF0000"/></g></svg>